<svg width="141" height="51" viewBox="0 0 141 51" fill="none" xmlns="http://www.w3.org/2000/svg">
<path d="M2.51884 15.1488C3.86474 16.5186 5.47981 17.6394 6.69112 19.1337C17.0545 32.4582 31.8594 39.0582 48.2793 42.6695C53.932 43.9148 60.3923 43.7903 66.1797 42.6695C82.7342 39.6809 97.8082 33.3299 110.863 23.3677C114.632 20.5035 117.862 16.8922 120.554 12.7828C119.073 13.2809 117.458 13.779 115.978 14.4016C111.671 16.145 107.364 18.013 102.923 19.5073C101.038 20.1299 98.7504 20.1299 96.5969 20.0054C95.7894 20.0054 94.5781 18.8847 94.4435 18.1375C94.3089 17.3903 95.1164 16.0205 95.7894 15.896C107.229 12.6583 117.189 6.43185 127.553 1.07713C131.186 -0.790788 133.474 -0.292676 135.09 3.06958C138.993 11.413 140.742 20.2545 140.473 29.345C140.473 29.5941 139.935 29.9677 139.127 30.7148C131.186 27.9752 133.609 20.0054 129.706 13.6545C128.764 15.1488 128.091 16.3941 127.283 17.3903C110.325 36.6922 87.8486 46.9035 61.7382 50.6393C57.8351 51.262 53.5283 51.0129 49.4906 50.3903C34.6857 48.0243 21.496 42.296 10.5942 32.7073C7.09489 29.5941 4.53769 25.4847 1.98048 21.6243C0.903768 20.1299 0.903769 18.013 0.5 16.2696C1.17295 15.896 1.8459 15.5224 2.51884 15.1488Z" fill="black"/>
</svg>
