<svg width="20" height="24" viewBox="0 0 20 24" fill="none" xmlns="http://www.w3.org/2000/svg">
<path d="M13.7814 5.113C12.0914 3.425 10.4814 1.815 9.99941 0C9.51941 1.815 7.90941 3.425 6.22141 5.113C3.68741 7.643 0.816406 10.513 0.816406 14.815C0.816406 17.251 1.784 19.5873 3.50634 21.3098C5.22867 23.0323 7.56466 24 10.0004 24C12.4362 24 14.7721 23.0323 16.4945 21.3098C18.2168 19.5873 19.1844 17.251 19.1844 14.815C19.1844 10.512 16.3134 7.644 13.7794 5.113M4.72141 16.954C4.15841 16.935 2.08141 13.354 5.93641 9.538L8.48641 12.326C8.50802 12.3477 8.52486 12.3737 8.53585 12.4023C8.54684 12.4309 8.55174 12.4614 8.55023 12.492C8.54873 12.5226 8.54085 12.5526 8.5271 12.5799C8.51336 12.6073 8.49405 12.6315 8.47041 12.651C7.86041 13.276 5.26641 15.878 4.94341 16.777C4.87741 16.963 4.77941 16.957 4.72141 16.954ZM10.0014 21.677C9.16384 21.6765 8.36075 21.3434 7.7686 20.7511C7.17644 20.1588 6.84367 19.3556 6.84341 18.518C6.85556 17.7521 7.1338 17.0142 7.63041 16.431C8.20041 15.735 10.0004 13.776 10.0004 13.776C10.0004 13.776 11.7744 15.764 12.3674 16.425C12.8828 16.9997 13.1652 17.7461 13.1594 18.518C13.1591 19.3556 12.8264 20.1588 12.2342 20.7511C11.6421 21.3434 10.839 21.6765 10.0014 21.677ZM16.0474 16.554C15.9794 16.704 15.8244 16.952 15.6164 16.959C15.2454 16.973 15.2054 16.782 14.9304 16.376C14.3264 15.484 9.06641 9.986 8.08241 8.921C7.21641 7.986 7.96041 7.326 8.30541 6.981C8.73741 6.547 10.0014 5.285 10.0014 5.285C10.0014 5.285 13.7674 8.859 15.3374 11.301C16.9074 13.743 16.3664 15.857 16.0474 16.554Z" fill="black"/>
</svg>
