<svg width="10" height="16" viewBox="0 0 10 16" fill="none" xmlns="http://www.w3.org/2000/svg">
<path d="M8.80379 14.93C9.06128 14.6722 9.20591 14.3227 9.20591 13.9584C9.20591 13.594 9.06128 13.2445 8.80379 12.9867L3.81712 8.00003L8.80379 3.01336C9.04667 2.75271 9.1789 2.40796 9.17261 2.05174C9.16633 1.69552 9.02202 1.35565 8.7701 1.10372C8.51817 0.8518 8.1783 0.707493 7.82208 0.701208C7.46586 0.694922 7.12111 0.82715 6.86046 1.07003L0.902124 7.02836C0.644631 7.28618 0.5 7.63565 0.5 8.00003C0.5 8.36441 0.644631 8.71388 0.902124 8.9717L6.86046 14.93C7.11827 15.1875 7.46775 15.3322 7.83212 15.3322C8.1965 15.3322 8.54598 15.1875 8.80379 14.93Z" fill="#6F6F6F"/>
</svg>
