<svg width="10" height="16" viewBox="0 0 10 16" fill="none" xmlns="http://www.w3.org/2000/svg">
<path d="M1.19621 14.93C0.938717 14.6722 0.794086 14.3227 0.794086 13.9584C0.794086 13.594 0.938717 13.2445 1.19621 12.9867L6.18288 8.00003L1.19621 3.01336C0.953329 2.75271 0.821104 2.40796 0.827389 2.05174C0.833674 1.69552 0.977979 1.35565 1.2299 1.10372C1.48183 0.8518 1.8217 0.707493 2.17792 0.701208C2.53414 0.694922 2.87889 0.82715 3.13954 1.07003L9.09788 7.02836C9.35537 7.28618 9.5 7.63565 9.5 8.00003C9.5 8.36441 9.35537 8.71388 9.09788 8.9717L3.13954 14.93C2.88173 15.1875 2.53225 15.3322 2.16788 15.3322C1.8035 15.3322 1.45402 15.1875 1.19621 14.93Z" fill="#6F6F6F"/>
</svg>
